HIERARCHY
ROOT Hips
{
  OFFSET 13.6774 106.653 -34.4427
  CHANNELS 6 Xposition Yposition Zposition Zrotation Xrotation Yrotation
  JOINT ToSpine
  {
    OFFSET -2.69724 7.43032 -0.144315
    CHANNELS 3 Zrotation Xrotation Yrotation
    JOINT Spine
    {
      OFFSET -0.0310711 10.7595 1.96963
      CHANNELS 3 Zrotation Xrotation Yrotation
      JOINT Spine1
      {
        OFFSET 19.9056 3.91189 0.764692
        CHANNELS 3 Zrotation Xrotation Yrotation
        JOINT Neck
        {
          OFFSET 25.9749 7.03908 -0.130764
          CHANNELS 3 Zrotation Xrotation Yrotation
          JOINT Head
          {
            OFFSET 9.52751 0.295786 -0.907742
            CHANNELS 3 Zrotation Xrotation Yrotation
            End Site
            {
              OFFSET 16.4037 0.713936 2.7358
            }
          }
        }
        JOINT LeftShoulder
        {
          OFFSET 17.7449 4.33886 11.7777
          CHANNELS 3 Zrotation Xrotation Yrotation
          JOINT LeftArm
          {
            OFFSET 0.911315 1.27913 9.80584
            CHANNELS 3 Zrotation Xrotation Yrotation
            JOINT LeftForeArm
            {
              OFFSET 28.6126 1.18197 -3.53199
              CHANNELS 3 Zrotation Xrotation Yrotation
              JOINT LeftHand
              {
                OFFSET 27.5088 0.0218783 0.327423
                CHANNELS 3 Zrotation Xrotation Yrotation
                End Site
                {
                  OFFSET 18.6038 -0.000155887 0.382096
                }
              }
            }
          }
        }
        JOINT RightShoulder
        {
          OFFSET 17.1009 2.89543 -12.2328
          CHANNELS 3 Zrotation Xrotation Yrotation
          JOINT RightArm
          {
            OFFSET 1.4228 0.178766 -10.211
            CHANNELS 3 Zrotation Xrotation Yrotation
            JOINT RightForeArm
            {
              OFFSET 28.733 1.87905 2.64907
              CHANNELS 3 Zrotation Xrotation Yrotation
              JOINT RightHand
              {
                OFFSET 27.4588 0.290562 -0.101845
                CHANNELS 3 Zrotation Xrotation Yrotation
                End Site
                {
                  OFFSET 17.8396 -0.255518 -0.000602873
                }
              }
            }
          }
        }
      }
    }
  }
  JOINT LeftUpLeg
  {
    OFFSET -5.61296 -2.22332 -10.2353
    CHANNELS 3 Zrotation Xrotation Yrotation
    JOINT LeftLeg
    {
      OFFSET 2.56703 -44.7417 -7.93097
      CHANNELS 3 Zrotation Xrotation Yrotation
      JOINT LeftFoot
      {
        OFFSET 3.16933 -46.5642 -3.96578
        CHANNELS 3 Zrotation Xrotation Yrotation
        JOINT LeftToeBase
        {
          OFFSET 0.346054 -6.02161 12.8035
          CHANNELS 3 Zrotation Xrotation Yrotation
          End Site
          {
            OFFSET 0.134235 -1.35082 5.13018
          }
        }
      }
    }
  }
  JOINT RightUpLeg
  {
    OFFSET -5.7928 -1.72406 10.6446
    CHANNELS 3 Zrotation Xrotation Yrotation
    JOINT RightLeg
    {
      OFFSET -2.57161 -44.7178 -7.85259
      CHANNELS 3 Zrotation Xrotation Yrotation
      JOINT RightFoot
      {
        OFFSET -3.10148 -46.5936 -4.03391
        CHANNELS 3 Zrotation Xrotation Yrotation
        JOINT RightToeBase
        {
          OFFSET -0.0828122 -6.13587 12.8035
          CHANNELS 3 Zrotation Xrotation Yrotation
          End Site
          {
            OFFSET -0.131328 -1.35082 5.13018
          }
        }
      }
    }
  }
}
MOTION
Frames: 16
Frame Time: 0.03333333333333333
0.0000 93.1000 0.0000 63.1096 48.9691 26.8216 -71.1746 -1.5308 87.7682 135.1669 62.7154 -45.0196 10.0978 20.0561 -1.1650 -159.8346 2.1303 -179.2671 -140.9144 34.5533 157.2677 0.9033 -4.1080 -30.4890 -78.2505 37.1041 -110.7658 1.6846 7.7875 -19.1287 15.4388 -1.3188 -4.7678 -1.6338 -0.0882 26.5445 -77.4920 -53.1703 89.9009 15.7270 -14.6102 41.6317 6.9054 -0.1006 0.4245 -24.1322 -0.6533 79.1826 -162.9754 73.0035 156.3779 5.0914 7.0885 -0.1573 -6.4259 -22.7079 15.0678 -28.0316 4.0894 75.1641 6.0239 64.9047 1.2280 -7.5830 -7.2987 -0.6215 9.4908 -14.5936 -21.5867 
0.0000 93.1000 0.0000 61.0436 51.0399 27.5109 -71.2276 -0.9365 87.9532 135.6335 60.9979 -48.0552 9.1790 18.9548 -0.9951 -158.8671 -1.0088 -176.3570 -141.1809 30.1673 156.4760 1.3173 -3.9724 -30.7412 -81.0342 34.8041 -113.8997 6.1975 6.7909 -28.6193 15.3387 -1.5377 -5.0733 -1.3026 0.4281 26.7268 -71.9772 -54.9520 90.3713 12.6175 -12.0050 38.5551 5.8927 0.0332 0.4743 -30.8281 -0.5923 78.2474 -158.9743 76.9002 151.2971 5.7822 7.2925 -0.4315 -6.6324 -24.2178 13.6630 -22.8674 2.1347 76.7806 3.8323 57.2788 1.1020 -6.6399 -5.2575 -0.6801 3.5412 8.1085 -16.9722 
0.0000 93.1000 0.0000 57.7779 50.2106 28.6152 -71.1829 0.3524 88.0957 135.6628 59.9761 -49.5977 7.4145 19.0804 -1.9550 -161.0240 -5.1503 -175.1761 -142.9332 25.9045 155.5774 1.9608 -3.6293 -29.8520 -84.8297 32.6519 -113.8008 11.0317 9.4743 -42.0069 15.8885 -1.8372 -7.7199 -0.5607 0.9502 27.1090 -66.9264 -57.7772 92.2452 7.8200 -7.5897 36.9915 5.5786 0.1009 2.1083 -34.3436 -1.7368 78.8020 -110.7988 84.4167 100.9060 5.3790 7.3223 -1.6995 -6.9308 -24.7312 10.7580 -22.7082 -0.0841 78.8351 1.9616 41.1711 4.2174 -4.0573 -1.8691 0.4827 -12.9960 35.5794 3.4022 
0.0000 93.1000 0.0000 55.8972 47.0566 27.8170 -71.1511 -0.5358 87.8966 135.4277 60.9240 -50.5435 5.9373 20.8540 -3.1521 -161.4625 -7.9190 -172.3868 -144.0308 22.7922 155.8305 1.1491 -3.8018 -29.7495 -85.9880 31.1138 -115.0271 16.0638 10.2832 -54.8297 17.5144 -1.8082 -9.7046 -1.1021 2.1817 25.7109 -65.7019 -59.3712 93.7647 7.0153 -7.0144 36.1087 5.0986 -0.1924 2.5517 -39.0187 -4.5348 82.1680 -19.7179 78.0516 6.0632 3.0893 5.7252 -1.1371 -6.8516 -23.1180 11.3568 -20.6426 -3.0396 78.1676 1.5527 35.4842 7.2485 -4.2322 2.9412 -0.0199 -9.7221 24.7226 -0.8899 
0.0000 93.1000 0.0000 57.0483 43.9650 23.4660 -71.0252 -0.1965 87.7586 134.6226 61.9363 -52.0444 6.1833 22.3260 -5.7948 -161.0074 -10.0524 -169.5431 -143.1331 19.6197 156.1743 1.5923 -3.5061 -29.9251 -85.5453 31.2351 -113.9522 19.6906 9.2169 -63.7409 21.3974 -2.1104 -8.9932 -1.1035 2.8030 23.5024 -61.1330 -59.3539 99.6013 5.6805 -4.9722 34.6369 5.6629 0.1386 2.2917 -41.1183 -6.9603 83.9304 -10.9587 70.3017 -6.0423 2.9130 2.7046 -1.0723 -5.8043 -18.8309 9.8344 -19.2669 -3.7980 79.6288 1.4143 48.2422 3.6781 -4.4171 3.5321 0.1567 -0.7931 13.9922 -10.8829 
0.0000 93.1000 0.0000 60.0086 43.3681 19.6734 -70.8794 -0.7701 87.7323 135.7370 62.6893 -54.1929 5.8605 24.1647 -6.8759 -157.9264 -11.9261 -166.6887 -144.0029 16.9012 154.7539 1.4476 -3.1074 -30.9161 -83.9795 33.6974 -111.1436 17.7087 8.2677 -59.5389 21.6352 -1.8488 -7.4236 -1.5853 3.2305 21.8394 -58.3096 -57.9879 106.8702 3.1537 -1.8520 32.9676 6.0764 -0.1267 1.3748 -43.1594 -8.8592 86.0585 -10.0201 66.6272 -9.5202 3.2896 3.2333 -0.7410 -6.2915 -22.0685 7.4990 -18.5530 -4.5652 83.8597 7.9928 71.0656 -4.7863 -5.8006 -1.1192 -0.0084 3.3753 5.1125 -14.1946 
0.0000 93.1000 0.0000 64.0290 41.2938 16.2546 -71.0504 0.5826 87.9145 138.7200 64.0348 -57.8976 6.9024 25.3387 -7.2271 -155.7128 -14.0304 -166.8461 -144.8669 13.8688 154.0009 2.5673 -2.9526 -32.1027 -83.2437 36.7993 -108.0085 13.7518 10.9178 -47.7257 19.8920 -2.1802 -7.3926 -0.7023 2.7825 20.6857 -62.7656 -58.6922 103.6409 2.6080 -1.3147 34.7267 7.8791 0.3242 1.4279 -40.4517 -9.1414 87.3803 -9.0989 66.6658 -8.1833 6.5875 1.6092 -2.0016 -9.4407 -32.8696 6.7586 -21.5686 -5.0053 85.7867 120.5556 84.2944 -115.5510 -7.1781 -2.9261 1.5593 4.3877 0.9614 -13.0128 
0.0000 93.1000 0.0000 62.9071 40.7499 16.3190 -70.8873 -0.0438 87.8908 136.8029 65.8004 -55.1554 7.5397 25.4455 -7.4713 -153.9846 -15.0964 -165.4051 -143.7655 12.9459 154.0623 2.5369 -1.4710 -33.9051 -79.2730 38.0227 -106.9400 9.7610 12.9558 -31.4556 17.8302 -1.9393 -6.6181 -0.8893 3.2077 19.1885 -71.0107 -59.6375 96.7666 4.0155 -2.3379 38.9659 8.4710 0.2780 1.3472 -32.2389 -10.8510 85.8447 -8.9577 67.8459 -3.8568 8.3336 6.6725 -1.5284 -10.6021 -42.6343 7.7478 -26.5436 -5.2520 88.8317 161.6270 74.0598 -153.5210 -7.8589 -4.9840 1.1551 4.8714 -1.9535 -14.1243 
0.0000 93.1000 0.0000 64.1832 41.5353 16.1029 -70.6751 0.5513 87.6715 139.7207 66.9710 -54.9078 9.2792 26.2588 -8.2690 -152.7762 -14.1429 -164.9671 -143.5539 13.8178 154.6013 3.1070 -1.7490 -36.5876 -73.6682 36.7004 -105.9910 4.1809 11.8719 -19.4914 17.5073 -1.8544 -5.2906 -0.3419 3.3215 18.6796 -70.7947 -59.1159 97.9429 5.1186 -2.8750 40.6200 7.9984 0.5240 2.9842 -28.9543 -13.0166 83.6243 -6.0462 63.2388 -2.1356 9.0385 10.3039 -1.5295 -10.1368 -41.8704 7.1645 -38.0698 -3.9121 89.9528 159.8407 74.0833 -145.8437 -6.6244 -3.6317 1.3024 5.8334 -8.3457 -13.6106 
0.0000 93.1000 0.0000 63.7259 41.1845 16.1459 -70.5208 0.7315 87.4992 140.8073 66.7206 -56.2150 8.9653 27.2505 -9.3429 -152.9417 -12.7555 -164.3243 -144.6964 14.8877 154.5523 3.3023 -1.4845 -37.9344 -88.5641 36.7215 -90.8877 -1.8350 21.6162 -10.3829 16.3460 -2.0860 -4.5587 -0.5857 3.1369 18.8716 -64.1634 -56.0144 106.4760 4.2781 -3.2821 38.6476 6.7436 1.0874 3.8110 -25.8214 -12.9507 82.4231 -4.1575 54.2337 -4.3171 6.0299 9.9972 -0.6271 -6.9140 -27.5530 9.5304 -45.9955 -1.2490 90.8985 133.6251 82.6518 -117.9694 -6.8358 -4.5578 1.2781 7.7512 -12.2326 -14.2567 
0.0000 93.1000 0.0000 58.7997 42.8938 18.9320 -70.5231 0.1593 87.3575 139.5611 66.8890 -54.9776 7.2476 27.3223 -10.2538 -155.0937 -11.9362 -164.4021 -144.7690 16.0893 154.3129 2.8134 -1.8675 -35.9287 -95.7257 37.9092 -83.1626 -5.1619 24.0243 -6.7467 13.7832 -2.0977 -3.6746 -1.4555 2.8216 18.9047 -61.5290 -54.9585 108.7809 3.9191 -2.6642 40.6147 5.2862 1.3590 4.2400 -24.2054 -12.1641 80.7022 -2.7904 39.1380 -10.5203 2.1934 9.5173 1.1047 -3.9334 -2.1303 15.3307 -49.0065 3.3106 88.9206 24.4075 80.0535 -10.1499 -6.6366 -5.9073 0.1433 5.8796 -9.5957 -15.2142 
0.0000 93.1000 0.0000 53.8808 46.1678 23.9858 -70.7537 0.1997 87.5868 137.7645 66.7460 -53.0775 7.9501 26.3374 -9.1888 -155.8678 -11.0786 -164.9395 -145.0127 17.8107 154.1660 2.4243 -2.6285 -35.7448 -96.3071 39.1392 -82.1009 -3.8710 23.6086 -7.4858 13.0817 -0.9442 -3.5101 -0.4414 1.2110 19.1819 -58.9556 -53.9969 109.8982 4.0091 -3.1302 42.5964 5.5541 0.0200 5.7833 -19.5469 -10.9155 81.7439 -2.6485 35.9894 -14.0937 -1.6949 9.0998 0.2609 -5.2761 -3.9218 19.6518 -49.7017 6.0469 85.1437 8.2717 68.5827 0.4494 -6.8768 -9.3021 0.9501 4.4165 0.7227 -12.0706 
0.0000 93.1000 0.0000 51.8044 49.1885 28.8619 -70.9370 0.5017 87.6933 137.7135 66.7539 -49.9513 8.0599 25.1060 -7.7229 -155.0700 -8.8983 -166.5651 -143.9520 18.8560 152.6430 2.8132 -2.7794 -35.6998 -92.8791 37.8075 -83.9418 -3.3931 21.5976 -9.7220 13.5085 -1.5720 -4.1240 -0.5821 1.1385 19.6574 -60.1855 -54.8626 107.6811 5.7436 -3.8081 43.7819 5.3430 0.7024 5.5716 -16.1700 -11.3697 81.9682 -5.2853 51.1367 -12.8960 -1.1010 7.9243 0.3221 -6.3015 -11.0749 18.7449 -50.3642 9.6872 81.7488 5.5227 62.1269 3.8370 -6.0415 -6.0856 0.4510 2.5504 3.8907 -13.1328 
0.0000 93.1000 0.0000 53.9682 53.4067 29.4405 -70.9443 0.6078 87.7174 140.7702 65.0594 -51.1461 8.3223 24.2212 -6.2627 -155.0901 -6.9253 -168.6604 -142.9075 20.9197 153.0649 2.7252 -2.8130 -34.5603 -89.8003 37.8580 -88.9461 -2.5643 22.0567 -10.7021 13.0031 -1.3708 -4.8629 -0.1100 1.0212 19.7609 -61.8436 -55.6751 104.0240 6.2648 -4.6633 41.5464 5.8300 0.2070 4.9109 -15.9109 -11.8101 80.9489 -12.0996 71.9305 -3.8283 0.3940 6.0934 -0.8620 -6.7532 -20.2007 18.2279 -50.9732 10.0912 79.3143 4.9696 59.7027 5.8773 -7.7225 -6.5725 1.5372 3.6479 -5.9386 -8.1197 
0.0000 93.1000 0.0000 57.9400 55.1201 26.7527 -70.8714 0.1606 87.8598 143.7627 64.2815 -53.9815 8.9532 24.4745 -4.8690 -153.9303 -4.3020 -169.6232 -141.6718 23.7438 154.1148 2.5162 -2.7929 -35.1152 -81.9181 37.8228 -95.8728 0.3183 15.8779 -14.8342 12.0401 -1.4015 -4.9265 -0.6136 0.7017 20.6358 -63.6048 -57.9832 100.7365 5.9675 -4.9214 36.6647 5.6151 0.3043 3.8945 -18.6807 -8.5070 81.7862 -99.8841 85.0226 86.9175 3.3301 4.0237 -1.0751 -6.7599 -23.2483 17.5318 -45.5762 8.5387 77.6219 6.8946 64.7174 7.4077 -7.8699 -17.1496 1.5366 6.2639 -0.5687 -17.7924 
0.0000 93.1000 0.0000 53.0819 53.2142 34.6785 -70.8557 0.5889 87.5593 140.6658 65.3737 -47.1694 9.8993 24.5281 -3.4591 -155.0750 -0.8710 -171.0422 -140.7703 27.9548 155.0940 2.8700 -2.0050 -34.8019 -73.8706 33.7528 -105.2169 2.0334 8.0451 -18.7337 13.2091 -0.9249 -4.4347 0.1658 0.6474 21.6727 -63.0549 -58.0758 102.7328 4.7809 -4.8543 27.8052 6.5013 -0.2900 3.8683 -18.2154 -3.5954 76.7290 -159.8487 76.2672 150.9008 4.7884 5.7415 -2.0232 -6.8621 -25.3265 17.8697 -33.0766 11.7940 77.2362 7.9065 66.9250 6.8491 -8.2155 -11.3357 2.4314 10.5753 -14.9808 -23.9259 
